<svg xmlns="http://www.w3.org/2000/svg" viewBox="0 0 24 24">
<circle cx="12" cy="12" r="12" fill="#3E2723"/>
<g fill="#FFEDCA">
<path d="M11.5 4c-.83 0-1.5.67-1.5 1.5v1.5c0 .83.67 1.5 1.5 1.5s1.5-.67 1.5-1.5V5.5c0-.83-.67-1.5-1.5-1.5z"/>
<path d="M7 5.5c-.83 0-1.5.67-1.5 1.5v1.5c0 .83.67 1.5 1.5 1.5S8.5 9.33 8.5 8.5V7c0-.83-.67-1.5-1.5-1.5z"/>
<path d="M16 5.5c-.83 0-1.5.67-1.5 1.5v1.5c0 .83.67 1.5 1.5 1.5s1.5-.67 1.5-1.5V7c0-.83-.67-1.5-1.5-1.5z"/>
<path d="M4 10.5c-.83 0-1.5.67-1.5 1.5v1c0 .83.67 1.5 1.5 1.5S5.5 13.83 5.5 13v-1c0-.83-.67-1.5-1.5-1.5z" transform="translate(.5 0)"/>
<path d="M19 10.5c-.83 0-1.5.67-1.5 1.5v1c0 .83.67 1.5 1.5 1.5s1.5-.67 1.5-1.5v-1c0-.83-.67-1.5-1.5-1.5z" transform="translate(-.5 0)"/>
<path d="M11.5 11c-2.76 0-5 2.24-5 5 0 1.66 1.34 3 3 3h4c1.66 0 3-1.34 3-3 0-2.76-2.24-5-5-5z"/>
</g>
</svg>
